<?xml version="1.0" standalone="no"?>
<!DOCTYPE svg PUBLIC "-//W3C//DTD SVG 20010904//EN"
 "http://www.w3.org/TR/2001/REC-SVG-20010904/DTD/svg10.dtd">
<svg version="1.0" xmlns="http://www.w3.org/2000/svg"
 width="2894.000000pt" height="2894.000000pt" viewBox="0 0 2894.000000 2894.000000"
 preserveAspectRatio="xMidYMid meet">
<metadata>
Created by potrace 1.11, written by Peter Selinger 2001-2013
</metadata>
<g transform="translate(0.000000,2894.000000) scale(0.100000,-0.100000)"
fill="#000000" stroke="none">
<path d="M14287 28918 c-68 -22 -117 -51 -168 -99 -39 -38 -391 -565 -764
-1147 -33 -51 -83 -127 -110 -170 -175 -268 -565 -899 -565 -912 0 -6 -4 -10
-10 -10 -5 0 -10 -4 -10 -9 0 -9 -112 -198 -130 -218 -5 -7 -10 -14 -10 -17 0
-2 -41 -73 -91 -158 -200 -336 -549 -953 -549 -969 0 -5 -4 -9 -10 -9 -5 0
-10 -5 -10 -11 0 -6 -22 -50 -49 -98 -26 -47 -79 -144 -116 -216 -37 -71 -71
-134 -75 -140 -31 -43 -468 -917 -615 -1230 -59 -125 -107 -229 -130 -280 -13
-27 -37 -81 -55 -120 -94 -205 -215 -482 -390 -895 -48 -115 -269 -666 -274
-685 -4 -14 -16 -47 -27 -70 -5 -11 -29 -76 -54 -145 -25 -69 -51 -136 -56
-150 -14 -33 -169 -460 -174 -480 -2 -8 -13 -42 -25 -75 -45 -126 -200 -587
-250 -745 -28 -91 -58 -183 -65 -205 -7 -22 -19 -60 -26 -85 -7 -25 -14 -49
-15 -55 -2 -5 -33 -109 -69 -230 -56 -185 -188 -645 -199 -695 -2 -8 -16 -58
-30 -110 -57 -206 -203 -853 -222 -980 -3 -19 -7 -42 -9 -50 -2 -8 -7 -31 -10
-50 -3 -19 -8 -42 -10 -50 -2 -8 -7 -31 -10 -50 -3 -19 -10 -60 -15 -90 -5
-30 -12 -73 -15 -95 -3 -22 -10 -65 -15 -95 -5 -30 -12 -77 -16 -105 -3 -27
-8 -59 -10 -69 -2 -11 -8 -56 -14 -100 -6 -45 -13 -92 -15 -106 -2 -14 -6 -52
-10 -85 -3 -33 -8 -71 -10 -85 -2 -14 -7 -52 -10 -85 -3 -33 -8 -73 -10 -90
-2 -16 -7 -61 -10 -100 -3 -38 -8 -88 -10 -110 -2 -22 -7 -76 -10 -120 -4 -44
-8 -102 -10 -130 -8 -98 -16 -223 -20 -331 -3 -60 -7 -156 -10 -214 -7 -125
-7 -834 -1 -1005 8 -212 20 -427 31 -565 2 -30 7 -89 10 -130 7 -90 14 -171
20 -225 2 -22 7 -71 10 -110 4 -38 8 -81 10 -95 2 -14 7 -52 10 -85 5 -54 9
-87 20 -165 2 -14 14 -101 26 -194 l22 -169 -84 -76 c-105 -95 -334 -324 -416
-416 -99 -112 -101 -114 -202 -240 -329 -406 -580 -837 -765 -1310 -39 -99
-134 -377 -141 -415 -2 -8 -14 -55 -28 -105 -14 -49 -28 -101 -31 -115 -3 -14
-12 -55 -20 -91 -8 -36 -17 -77 -20 -90 -2 -13 -12 -64 -21 -114 -9 -49 -18
-97 -20 -105 -5 -25 -15 -93 -20 -135 -3 -22 -8 -51 -10 -65 -2 -14 -7 -52
-10 -85 -4 -33 -8 -71 -10 -85 -4 -24 -13 -126 -20 -215 -21 -255 -27 -987
-11 -1290 4 -82 9 -175 11 -205 4 -75 15 -254 20 -315 2 -27 7 -95 11 -150 3
-55 8 -116 10 -135 29 -323 27 -383 -16 -605 -12 -60 -24 -119 -26 -130 -2
-11 -6 -31 -9 -45 -7 -33 -12 -58 -31 -160 -19 -104 -28 -316 -14 -325 5 -3
10 -15 10 -25 0 -22 43 -75 74 -92 56 -30 178 -40 286 -23 150 23 345 132 536
300 182 159 349 348 602 680 115 150 502 733 535 805 4 8 32 55 62 103 30 48
55 92 55 98 0 5 5 9 10 9 6 0 10 4 10 9 0 4 41 80 91 167 50 88 105 184 121
214 17 30 41 74 54 98 13 23 46 84 74 135 27 51 67 127 89 168 22 41 98 187
168 326 70 139 131 249 135 245 3 -4 16 -32 28 -62 12 -30 27 -66 33 -80 6
-14 11 -27 12 -30 9 -28 21 -55 58 -140 13 -30 32 -77 42 -103 10 -26 22 -50
26 -53 5 -3 9 -11 9 -19 0 -7 13 -42 29 -77 16 -35 60 -133 99 -218 168 -376
456 -956 634 -1280 19 -36 65 -119 101 -185 35 -66 127 -228 202 -360 76 -132
146 -254 156 -272 10 -17 29 -50 43 -72 15 -22 26 -44 26 -48 0 -3 6 -14 14
-22 8 -9 26 -40 41 -68 34 -66 76 -103 118 -104 18 0 1312 -1 2878 -1 3202 -1
2889 -9 2931 77 12 25 26 45 30 45 4 0 8 4 8 10 0 5 14 33 31 62 18 29 40 67
50 85 21 37 238 412 267 463 11 19 30 53 42 75 12 22 35 63 50 90 197 358 266
491 454 870 150 301 236 481 236 490 0 2 20 46 44 97 104 219 396 916 396 944
0 8 3 14 8 14 4 0 69 -123 144 -273 131 -259 220 -431 310 -597 22 -41 56
-104 76 -140 19 -36 38 -69 42 -75 4 -5 26 -46 50 -90 24 -44 51 -92 61 -107
11 -14 19 -28 19 -31 0 -3 28 -52 61 -109 34 -57 69 -116 79 -133 152 -264
481 -767 622 -950 66 -86 243 -311 247 -315 3 -3 40 -43 81 -89 392 -442 735
-635 1020 -576 70 15 93 27 125 69 34 44 38 63 40 173 2 95 -12 193 -64 448
-52 259 -61 330 -56 455 3 63 7 124 9 135 2 11 7 70 11 130 4 61 9 126 10 145
4 46 14 193 20 300 3 47 8 114 10 150 27 421 27 1198 0 1498 -2 20 -6 73 -10
117 -4 44 -8 91 -10 105 -2 14 -6 50 -10 80 -3 30 -8 66 -10 80 -2 14 -7 45
-10 70 -4 25 -8 59 -11 75 -3 17 -7 41 -9 55 -6 41 -16 101 -21 124 -3 11 -8
35 -10 51 -3 17 -21 95 -40 175 -132 560 -304 978 -619 1498 -51 85 -210 314
-272 392 -91 115 -230 283 -291 350 -189 208 -550 550 -579 550 -14 0 -14 7 2
110 2 14 7 50 10 80 3 30 8 62 10 70 2 8 7 44 10 80 4 36 8 76 10 90 4 24 7
58 20 180 3 30 8 71 10 90 2 19 7 67 10 105 7 87 13 168 20 243 27 324 39 666
39 1137 -1 466 -12 789 -39 1100 -2 28 -7 86 -10 130 -3 44 -8 96 -10 115 -3
19 -7 62 -10 95 -7 78 -15 154 -20 185 -2 14 -6 50 -10 80 -5 51 -20 165 -31
250 -2 19 -7 44 -9 55 -2 11 -7 47 -10 80 -3 33 -8 67 -10 75 -5 16 -10 51
-20 115 -3 23 -7 50 -9 60 -7 39 -39 220 -41 240 -5 37 -44 228 -81 400 -20
94 -40 190 -45 215 -8 37 -43 186 -65 275 -9 37 -74 279 -95 355 -11 41 -22
82 -24 90 -2 8 -35 128 -75 265 -39 138 -73 257 -75 265 -12 45 -145 477 -201
650 -132 409 -265 796 -401 1170 -67 182 -238 633 -253 665 -5 11 -48 117 -95
235 -190 470 -427 1015 -629 1445 -32 66 -82 174 -114 240 -62 132 -458 922
-514 1025 -19 36 -61 115 -93 175 -32 61 -65 124 -75 140 -9 17 -33 59 -52 95
-34 63 -63 114 -116 210 -13 25 -39 72 -57 105 -18 33 -68 121 -110 195 -43
74 -89 155 -103 180 -14 25 -63 110 -110 190 -47 80 -106 180 -131 223 -25 43
-51 86 -56 95 -119 201 -397 654 -551 897 -116 183 -181 286 -239 375 -23 36
-58 90 -77 120 -124 193 -475 729 -499 760 -10 14 -31 46 -45 73 -15 26 -31
47 -36 47 -4 0 -8 4 -8 10 0 11 -62 103 -72 108 -5 2 -8 8 -8 13 0 13 -77 118
-108 147 -105 100 -275 137 -415 90z"/>
<path d="M12405 5310 c-31 -12 -62 -52 -70 -88 -7 -33 0 -54 82 -267 19 -49
55 -142 79 -205 25 -63 51 -131 59 -150 8 -19 33 -84 55 -145 23 -60 46 -119
51 -130 5 -11 31 -78 58 -150 28 -71 101 -263 164 -425 63 -162 167 -432 231
-600 65 -168 121 -314 126 -325 19 -43 52 -128 124 -315 40 -107 85 -224 99
-260 14 -36 48 -123 76 -195 27 -71 78 -202 112 -290 34 -88 67 -173 74 -190
7 -16 16 -41 20 -55 4 -14 15 -43 25 -65 10 -22 31 -76 48 -120 17 -44 97
-251 178 -460 153 -397 167 -433 214 -555 15 -41 38 -100 50 -130 12 -30 28
-74 37 -98 21 -60 77 -97 134 -89 48 6 91 42 107 90 18 55 62 170 76 202 8 17
35 86 61 155 26 69 55 145 65 170 10 25 69 176 130 335 62 160 166 430 232
600 66 171 158 409 205 530 47 121 102 265 123 320 22 55 60 154 85 220 25 66
50 129 55 140 9 19 73 185 75 195 1 3 5 14 10 25 11 27 66 171 229 595 75 195
141 364 146 375 5 11 36 90 68 175 32 85 62 164 67 175 4 11 16 40 25 65 9 25
83 215 163 423 81 207 147 391 147 408 0 16 -7 43 -15 59 -33 65 124 60 -2067
59 -1096 0 -2002 -4 -2013 -9z"/>
</g>
</svg>
