<svg id="Layer_1" data-name="Layer 1" xmlns="http://www.w3.org/2000/svg" viewBox="0 0 309.57 597.36"><defs><style>.cls-1{fill:#69c;}.cls-1,.cls-2,.cls-3,.cls-4,.cls-5{stroke:#231f20;stroke-linecap:round;stroke-linejoin:round;stroke-width:5px;}.cls-2{fill:none;}.cls-3{fill:#fff;}.cls-4{fill:#9fc9eb;}.cls-5{fill:#fbb040;}</style></defs><title>accelerate-starter</title><path class="cls-1" d="M192.83,385.21c-18.19,15.61-26.38,31.33-30.33,41.21-10.49,26.25-8.28,54.5-6.08,82.68.39,5-4.57,19.54-1.84,20.35,20.4,6.06,57.4-73.82,57.4-73.82" transform="translate(-151.26 -45.85)"/><path class="cls-1" d="M419.25,385.21c18.19,15.61,26.38,31.33,30.33,41.21,10.5,26.25,8.29,54.5,6.08,82.68-.39,5,4.58,19.54,1.84,20.35-20.39,6.06-57.39-73.82-57.39-73.82" transform="translate(-151.26 -45.85)"/><path class="cls-2" d="M366.35,526.19" transform="translate(-151.26 -45.85)"/><path class="cls-2" d="M234.57,526.19" transform="translate(-151.26 -45.85)"/><path class="cls-3" d="M387.87,526.19" transform="translate(-151.26 -45.85)"/><path class="cls-3" d="M423,260.66" transform="translate(-151.26 -45.85)"/><path class="cls-3" d="M315.58,82.44" transform="translate(-151.26 -45.85)"/><path class="cls-4" d="M363.59,526.19c12.85-22.68,83.09-131.57,46.84-265.53C384.06,163.2,341.55,98.48,310,51a6,6,0,0,0-5-2.67h0a6.41,6.41,0,0,0-5.35,2.87C268.23,98.67,225.8,163.34,199.47,260.66c-36.25,134,34,242.85,46.83,265.53h58.52" transform="translate(-151.26 -45.85)"/><path class="cls-2" d="M234.82,526.19" transform="translate(-151.26 -45.85)"/><path class="cls-2" d="M375.33,526.19" transform="translate(-151.26 -45.85)"/><path class="cls-3" d="M213.31,526.19" transform="translate(-151.26 -45.85)"/><path class="cls-3" d="M178.2,260.66" transform="translate(-151.26 -45.85)"/><path class="cls-3" d="M294.32,82.44" transform="translate(-151.26 -45.85)"/><line class="cls-2" x1="212.34" y1="480.34" x2="153.82" y2="480.34"/><circle class="cls-1" cx="153.56" cy="261.05" r="54.33"/><polyline class="cls-5" points="153.69 594.86 113.16 490.03 194.22 490.03 153.69 594.86"/></svg>